<svg width="40" height="40" viewBox="0 0 40 40" fill="none" xmlns="http://www.w3.org/2000/svg">
<rect width="40" height="40" rx="2" fill="white"/>
<rect x="1" y="1" width="38" height="38" rx="1" fill="white"/>
<path fill-rule="evenodd" clip-rule="evenodd" d="M28.208 20.1943C28.208 19.5881 28.1536 19.0051 28.0525 18.4455H20V21.7528H24.6015C24.4032 22.8215 23.8009 23.727 22.8953 24.3333V26.4786H25.6585C27.2753 24.9901 28.208 22.7982 28.208 20.1943Z" fill="#4285F4"/>
<path fill-rule="evenodd" clip-rule="evenodd" d="M20 28.55C22.3085 28.55 24.2439 27.7844 25.6585 26.4786L22.8953 24.3333C22.1297 24.8463 21.1504 25.1494 20 25.1494C17.7731 25.1494 15.8882 23.6454 15.2159 21.6245H12.3594V23.8397C13.7663 26.634 16.6577 28.55 20 28.55Z" fill="#34A853"/>
<path fill-rule="evenodd" clip-rule="evenodd" d="M15.2159 21.6245C15.0449 21.1115 14.9477 20.5635 14.9477 20C14.9477 19.4365 15.0449 18.8885 15.2159 18.3755V16.1603H12.3594C11.7804 17.3145 11.45 18.6204 11.45 20C11.45 21.3797 11.7804 22.6855 12.3594 23.8397L15.2159 21.6245Z" fill="#FBBC05"/>
<path fill-rule="evenodd" clip-rule="evenodd" d="M20 14.8506C21.2553 14.8506 22.3823 15.282 23.2684 16.1292L25.7207 13.6769C24.24 12.2972 22.3046 11.45 20 11.45C16.6577 11.45 13.7663 13.366 12.3594 16.1603L15.2159 18.3755C15.8882 16.3546 17.7731 14.8506 20 14.8506Z" fill="#EA4335"/>
</svg>
